<svg width="88" height="72" fill="none" xmlns="http://www.w3.org/2000/svg"><path d="M30.718 24.87c1.127-3.046 5.437-3.046 6.564 0l3.722 10.058a3.5 3.5 0 002.068 2.068l10.057 3.721c3.047 1.128 3.047 5.438 0 6.566l-10.057 3.721a3.5 3.5 0 00-2.068 2.068l-3.721 10.057c-1.128 3.047-5.438 3.047-6.566 0l-3.721-10.057a3.5 3.5 0 00-2.068-2.068l-10.057-3.721c-3.047-1.128-3.047-5.438 0-6.566l10.057-3.721a3.5 3.5 0 002.068-2.068l3.722-10.057zM74.593 21.802c.483-1.306 2.33-1.306 2.814 0l1.595 4.31a1.5 1.5 0 00.886.886l4.31 1.595c1.306.483 1.306 2.33 0 2.814l-4.31 1.595a1.5 1.5 0 00-.886.886l-1.595 4.31c-.483 1.306-2.33 1.306-2.814 0l-1.595-4.31a1.5 1.5 0 00-.886-.886l-4.31-1.595c-1.306-.483-1.306-2.33 0-2.814l4.31-1.595a1.5 1.5 0 00.886-.886l1.595-4.31zM10.593 3.802c.483-1.306 2.33-1.306 2.814 0l1.595 4.31a1.5 1.5 0 00.886.886l4.31 1.595c1.306.483 1.306 2.33 0 2.814l-4.31 1.595a1.5 1.5 0 00-.886.886l-1.595 4.31c-.483 1.306-2.33 1.306-2.814 0l-1.595-4.31a1.5 1.5 0 00-.886-.886l-4.31-1.595c-1.306-.483-1.306-2.33 0-2.814l4.31-1.595a1.5 1.5 0 00.886-.886l1.595-4.31z" fill="#000"/></svg>