<svg width="40" height="60" fill="none" xmlns="http://www.w3.org/2000/svg"><path d="M17.655 26.336c.806-2.176 3.884-2.176 4.69 0l2.658 7.184a2.5 2.5 0 001.477 1.477l7.184 2.658c2.176.806 2.176 3.884 0 4.69l-7.184 2.658a2.5 2.5 0 00-1.477 1.477l-2.658 7.184c-.806 2.176-3.884 2.176-4.69 0l-2.658-7.184a2.5 2.5 0 00-1.477-1.477l-7.184-2.658c-2.176-.806-2.176-3.884 0-4.69l7.184-2.658a2.5 2.5 0 001.477-1.477l2.658-7.184zM27.062 2.534c.322-.87 1.554-.87 1.876 0L30 5.409a1 1 0 00.591.59l2.873 1.064c.871.322.871 1.554 0 1.876L30.592 10a1 1 0 00-.59.591l-1.064 2.873c-.322.871-1.554.871-1.876 0L26 10.593a1 1 0 00-.591-.59l-2.873-1.064c-.871-.322-.871-1.554 0-1.876L25.408 6a1 1 0 00.59-.591l1.064-2.874z" fill="#000"/></svg>